<svg width="40" height="40" viewBox="0 0 40 40" fill="none" xmlns="http://www.w3.org/2000/svg">
<path fill-rule="evenodd" clip-rule="evenodd" d="M26.5787 20.1367C26.6921 20.2499 26.7821 20.3843 26.8435 20.5323C26.9049 20.6803 26.9366 20.839 26.9366 20.9992C26.9366 21.1595 26.9049 21.3181 26.8435 21.4661C26.7821 21.6141 26.6921 21.7486 26.5787 21.8617L19.2692 29.1712C19.1561 29.2846 19.0216 29.3746 18.8736 29.436C18.7256 29.4975 18.567 29.5291 18.4067 29.5291C18.2465 29.5291 18.0878 29.4975 17.9398 29.436C17.7918 29.3746 17.6574 29.2846 17.5442 29.1712L13.8895 25.5164C13.7762 25.4032 13.6864 25.2687 13.6251 25.1207C13.5638 24.9727 13.5322 24.8141 13.5322 24.6539C13.5322 24.4938 13.5638 24.3351 13.6251 24.1871C13.6864 24.0392 13.7762 23.9047 13.8895 23.7914C14.1182 23.5627 14.4285 23.4342 14.752 23.4342C14.9122 23.4342 15.0708 23.4657 15.2188 23.527C15.3668 23.5883 15.5012 23.6782 15.6145 23.7914L18.4067 26.5861L24.8536 20.1367C24.9668 20.0233 25.1012 19.9333 25.2492 19.8718C25.3972 19.8104 25.5559 19.7788 25.7161 19.7788C25.8764 19.7788 26.035 19.8104 26.1831 19.8718C26.3311 19.9333 26.4655 20.0233 26.5787 20.1367Z" fill="#1695FB"/>
<path d="M19.6256 2.72554C21.2411 2.72554 22.7904 3.36729 23.9328 4.50961C25.0751 5.65193 25.7168 7.20124 25.7168 8.81673V10.035H13.5345V8.81673C13.5345 7.20124 14.1762 5.65193 15.3185 4.50961C16.4608 3.36729 18.0102 2.72554 19.6256 2.72554ZM28.1533 10.035V8.81673C28.1533 6.55505 27.2549 4.386 25.6556 2.78676C24.0564 1.18751 21.8873 0.289063 19.6256 0.289062C17.364 0.289063 15.1949 1.18751 13.5957 2.78676C11.9964 4.386 11.098 6.55505 11.098 8.81673V10.035H2.57031V34.3997C2.57031 35.6921 3.08371 36.9316 3.99757 37.8454C4.91142 38.7593 6.15088 39.2727 7.44326 39.2727H31.808C33.1004 39.2727 34.3399 38.7593 35.2537 37.8454C36.1676 36.9316 36.681 35.6921 36.681 34.3997V10.035H28.1533ZM5.00679 12.4714H34.2445V34.3997C34.2445 35.0459 33.9878 35.6656 33.5309 36.1226C33.0739 36.5795 32.4542 36.8362 31.808 36.8362H7.44326C6.79707 36.8362 6.17734 36.5795 5.72042 36.1226C5.26349 35.6656 5.00679 35.0459 5.00679 34.3997V12.4714Z" fill="#1695FB"/>
</svg>
