<svg width="39" height="39" viewBox="0 0 39 39" fill="none" xmlns="http://www.w3.org/2000/svg">
<path d="M12.8116 4.04871C10.5496 4.67211 8.30296 5.34997 6.07368 6.08171C5.87011 6.14765 5.68916 6.26944 5.55144 6.4332C5.41371 6.59696 5.32475 6.79611 5.29468 7.00796C3.97893 16.8808 7.01893 24.0842 10.6456 28.8295C12.181 30.8586 14.0119 32.6463 16.0772 34.1328C16.8989 34.7123 17.6257 35.1303 18.198 35.3987C18.483 35.5341 18.7158 35.6243 18.8939 35.679C18.9718 35.7063 19.0521 35.7262 19.1338 35.7383C19.2145 35.7252 19.2939 35.7054 19.3713 35.679C19.5518 35.6243 19.7845 35.5341 20.0695 35.3987C20.6395 35.1303 21.3687 34.71 22.1904 34.1328C24.2557 32.6463 26.0866 30.8586 27.6221 28.8295C31.2487 24.0866 34.2887 16.8808 32.9729 7.00796C32.9431 6.79601 32.8543 6.59673 32.7165 6.43292C32.5787 6.26912 32.3976 6.1474 32.1939 6.08171C30.6478 5.57584 28.0377 4.75171 25.456 4.05109C22.8198 3.33621 20.3949 2.80659 19.1338 2.80659C17.875 2.80659 15.4478 3.33621 12.8116 4.05109V4.04871ZM12.1798 1.60246C14.7567 0.901836 17.4951 0.272461 19.1338 0.272461C20.7726 0.272461 23.5109 0.901836 26.0878 1.60246C28.7241 2.31496 31.3817 3.15809 32.9444 3.66871C33.5978 3.88448 34.1771 4.28019 34.6157 4.81038C35.0543 5.34056 35.3344 5.98372 35.4239 6.66596C36.8394 17.2988 33.5548 25.1791 29.5695 30.3922C27.8796 32.6223 25.8645 34.5861 23.5917 36.2181C22.8058 36.7828 21.9731 37.2794 21.1027 37.7025C20.4377 38.016 19.7228 38.2725 19.1338 38.2725C18.5448 38.2725 17.8323 38.016 17.1649 37.7025C16.2945 37.2794 15.4618 36.7828 14.6759 36.2181C12.4031 34.5861 10.3881 32.6222 8.69805 30.3922C4.7128 25.1791 1.42818 17.2988 2.84368 6.66596C2.93318 5.98372 3.21333 5.34056 3.65193 4.81038C4.09053 4.28019 4.66979 3.88448 5.32318 3.66871C7.59176 2.92488 9.87796 2.23593 12.1798 1.60246Z" fill="#1695FB"/>
<path d="M25.9116 12.4924C26.0222 12.6027 26.1099 12.7338 26.1698 12.878C26.2296 13.0223 26.2605 13.177 26.2605 13.3332C26.2605 13.4894 26.2296 13.644 26.1698 13.7883C26.1099 13.9326 26.0222 14.0636 25.9116 14.1739L18.7866 21.2989C18.6763 21.4095 18.5452 21.4973 18.401 21.5571C18.2567 21.617 18.102 21.6478 17.9458 21.6478C17.7896 21.6478 17.635 21.617 17.4907 21.5571C17.3464 21.4973 17.2154 21.4095 17.1051 21.2989L13.5426 17.7364C13.4322 17.626 13.3446 17.4949 13.2848 17.3507C13.2251 17.2064 13.1943 17.0518 13.1943 16.8957C13.1943 16.7395 13.2251 16.5849 13.2848 16.4407C13.3446 16.2964 13.4322 16.1653 13.5426 16.0549C13.653 15.9445 13.7841 15.8569 13.9283 15.7972C14.0726 15.7374 14.2272 15.7067 14.3833 15.7067C14.5395 15.7067 14.6941 15.7374 14.8383 15.7972C14.9826 15.8569 15.1137 15.9445 15.2241 16.0549L17.9458 18.7791L24.2301 12.4924C24.3404 12.3818 24.4714 12.2941 24.6157 12.2342C24.76 12.1744 24.9146 12.1436 25.0708 12.1436C25.227 12.1436 25.3817 12.1744 25.526 12.2342C25.6702 12.2941 25.8013 12.3818 25.9116 12.4924Z" fill="#1695FB"/>
</svg>
