<svg width="39" height="39" viewBox="0 0 39 39" fill="none" xmlns="http://www.w3.org/2000/svg">
<path d="M18.6583 1.75259C18.8079 1.29193 19.4596 1.29193 19.6093 1.75259L23.2873 13.0722C23.3542 13.2783 23.5462 13.4177 23.7628 13.4177H35.665C36.1494 13.4177 36.3508 14.0375 35.9589 14.3222L26.3298 21.3182C26.1546 21.4455 26.0813 21.6712 26.1482 21.8772L29.8262 33.1969C29.9759 33.6575 29.4486 34.0406 29.0568 33.7559L19.4277 26.7599C19.2524 26.6326 19.0151 26.6326 18.8399 26.7599L9.21082 33.7559C8.81896 34.0406 8.29172 33.6575 8.4414 33.1969L12.1194 21.8772C12.1863 21.6712 12.113 21.4455 11.9377 21.3182L2.30866 14.3222C1.91681 14.0375 2.1182 13.4177 2.60256 13.4177H14.5048C14.7214 13.4177 14.9133 13.2783 14.9803 13.0722L18.6583 1.75259Z" fill="#1695FB"/>
</svg>
