<svg width="30" height="36" viewBox="0 0 30 36" fill="none" xmlns="http://www.w3.org/2000/svg">
<path d="M15.1338 2.66406C11.9843 2.66406 8.96389 3.91517 6.7369 6.14217C4.5099 8.36916 3.25879 11.3896 3.25879 14.5391V16.9141H5.63379C6.26368 16.9141 6.86777 17.1643 7.31317 17.6097C7.75857 18.0551 8.00879 18.6592 8.00879 19.2891V26.4141C8.00879 27.044 7.75857 27.648 7.31317 28.0934C6.86777 28.5388 6.26368 28.7891 5.63379 28.7891H3.25879C2.6289 28.7891 2.02481 28.5388 1.57941 28.0934C1.13401 27.648 0.883789 27.044 0.883789 26.4141V14.5391C0.883789 12.6677 1.25238 10.8147 1.96851 9.08582C2.68464 7.35693 3.73428 5.78603 5.05752 4.46279C6.38075 3.13956 7.95166 2.08991 9.68055 1.37378C11.4094 0.65765 13.2625 0.289063 15.1338 0.289062C17.0051 0.289062 18.8581 0.65765 20.587 1.37378C22.3159 2.08991 23.8868 3.13956 25.2101 4.46279C26.5333 5.78603 27.5829 7.35693 28.2991 9.08582C29.0152 10.8147 29.3838 12.6677 29.3838 14.5391V28.7891C29.3838 30.3638 28.7582 31.874 27.6447 32.9875C26.5312 34.101 25.021 34.7266 23.4463 34.7266H18.378C18.1696 35.0876 17.8698 35.3874 17.5088 35.5959C17.1477 35.8043 16.7382 35.9141 16.3213 35.9141H13.9463C13.3164 35.9141 12.7123 35.6638 12.2669 35.2184C11.8215 34.773 11.5713 34.169 11.5713 33.5391C11.5713 32.9092 11.8215 32.3051 12.2669 31.8597C12.7123 31.4143 13.3164 31.1641 13.9463 31.1641H16.3213C16.7382 31.1641 17.1477 31.2738 17.5088 31.4823C17.8698 31.6907 18.1696 31.9905 18.378 32.3516H23.4463C24.3911 32.3516 25.2973 31.9762 25.9654 31.3081C26.6335 30.64 27.0088 29.7339 27.0088 28.7891H24.6338C24.0039 28.7891 23.3998 28.5388 22.9544 28.0934C22.509 27.648 22.2588 27.044 22.2588 26.4141V19.2891C22.2588 18.6592 22.509 18.0551 22.9544 17.6097C23.3998 17.1643 24.0039 16.9141 24.6338 16.9141H27.0088V14.5391C27.0088 12.9796 26.7016 11.4354 26.1049 9.9947C25.5081 8.55396 24.6334 7.24486 23.5307 6.14217C22.428 5.03947 21.1189 4.16477 19.6782 3.56799C18.2374 2.97122 16.6932 2.66406 15.1338 2.66406Z" fill="#1695FB"/>
</svg>
